<?xml version="1.0" encoding="UTF-8"?>
<svg width="64px" height="64px" viewBox="0 0 64 64" version="1.1" xmlns="http://www.w3.org/2000/svg" xmlns:xlink="http://www.w3.org/1999/xlink">
    <title>Artboard</title>
    <g id="Artboard" stroke="none" stroke-width="1" fill="none" fill-rule="evenodd">
        <rect id="Rectangle-Copy" fill="#D36E46" x="0" y="0" width="64" height="64" rx="32"></rect>
        <g id="Logo" transform="translate(15, 8)" fill="#FFFFFF">
            <path d="M21.097245,24.2475774 C18.7269999,26.2846507 18.3211714,27.4019503 17.0123023,29.3378272 C17.0105214,29.3341351 17.0085735,29.3306668 17.0067926,29.3269748 L17.0067926,29.3463302 C16.9963296,29.3406802 16.9882042,29.3367084 16.9876476,29.3378272 C15.6788286,27.4019503 15.2730002,26.2846507 12.902755,24.2475774 C9.42093396,21.2838497 7.54144515,20.2495099 7.47783271,17.6023495 L7.47838925,17.6023495 C7.53944161,14.9509936 9.41926434,13.9174369 12.9035342,10.9515835 C15.273835,8.91456614 15.6906829,7.78065222 16.9995019,5.84477528 C18.3083154,7.78065222 18.726165,8.91456614 21.0964102,10.9515835 C24.5807357,13.9174369 26.4605584,14.9509936 26.5216108,17.6023495 L26.5221673,17.6023495 C26.4585549,20.2495099 24.5790661,21.2838497 21.097245,24.2475774 M28.9624251,17.5968114 L28.9615903,17.5968114 C28.9824049,16.036519 28.2982512,14.3307813 27.3357165,13.1733164 C26.3619397,12.0023139 24.975489,11.091211 23.6425218,9.96731041 C21.1317504,7.85035408 18.6326664,5.31076727 18.1866002,1.19293116 C17.8719329,1.19287521 18.1841514,1.19281927 18.1841514,1.19281927 C18.1841514,1.19265145 18.1842071,1.19242769 18.1842071,1.19220393 C18.1842071,0.533784248 17.6560513,0 17.0045108,0 C17.0030638,0 17.0017281,0 17.0002811,0 L16.9997245,0.00788761045 L16.9997245,0 C16.9982775,0 16.9968862,0 16.9954392,0 C16.3439487,0 15.8157929,0.533784248 15.8157929,1.19220393 C15.8157929,1.19242769 15.8157929,1.19265145 15.8157929,1.19281927 C15.8157929,1.19281927 16.1280671,1.19287521 15.8133442,1.19293116 C15.3673336,5.31076727 12.8682496,7.85035408 10.3574783,9.96731041 C9.02451103,11.091211 7.63806037,12.0023139 6.66428358,13.1733164 C5.70174889,14.3307813 5.01759515,16.036519 5.03840972,17.5968114 L5.03757491,17.5968114 C5.01509072,19.1586701 5.699801,20.8670371 6.66344877,22.0258445 C7.63722556,23.196847 9.02373188,24.1080058 10.3566991,25.2318505 C12.8674704,27.3488068 15.3664988,29.8884496 15.812565,34.0062297 C15.8221932,34.0062297 15.8310978,34.0062297 15.8405033,34.0062297 L15.8131216,34.0071248 C15.8131216,34.0073485 15.8131216,34.0075723 15.8131216,34.0077401 C15.8131216,34.6662158 16.3405538,35.2 16.9911538,35.2 C16.9926008,35.2 16.9939922,35.2 16.9954392,35.2 L17.0045664,35.1897069 L17.0045664,35.2 C17.0060134,35.2 17.0074048,35.2 17.0087961,35.2 C17.6594462,35.2 18.1868785,34.6662158 18.1868785,34.0077401 C18.1868785,34.0075723 18.1868228,34.0073485 18.1868228,34.0071248 L18.074068,34.0071248 L18.0747915,34.0062857 C18.1104656,34.0062857 18.1473085,34.0062857 18.187435,34.0062297 C18.6335013,29.8884496 21.1325296,27.3488068 23.6433009,25.2318505 C24.9762682,24.1080058 26.3627188,23.196847 27.3365513,22.0258445 C28.3001434,20.8670371 28.9849093,19.1586701 28.9624251,17.5968114" id="Fill-1"></path>
            <path d="M17.0380296,13.7441906 C18.8443834,13.7441906 20.3087256,15.2060725 20.3087256,17.0093914 C20.3087256,18.8127102 18.8443834,20.2745921 17.0380296,20.2745921 C15.23167,20.2745921 13.7673278,18.8127102 13.7673278,17.0093914 C13.7673278,15.2060725 15.23167,13.7441906 17.0380296,13.7441906 M11.3333333,16.9714286 C11.3333333,20.0957959 13.8703715,22.6285714 17.0000029,22.6285714 C20.1296285,22.6285714 22.6666667,20.0957959 22.6666667,16.9714286 C22.6666667,13.8470612 20.1296285,11.3142857 17.0000029,11.3142857 C13.8703715,11.3142857 11.3333333,13.8470612 11.3333333,16.9714286" id="Fill-3"></path>
            <path d="M28.036445,41.5109582 C23.5433655,41.6054819 19.8140132,39.0171345 19.3929384,38.3528209 L19.404802,38.3528209 C19.4014602,38.3499426 19.3969486,38.3460857 19.3932169,38.342862 C19.3969486,38.3396383 19.4014602,38.3358389 19.404802,38.3329031 L19.3929384,38.3329031 C19.8140132,37.6686471 23.5433655,35.0802997 28.036445,35.1747658 C30.2360037,35.221049 31.5713009,36.5659097 31.6267758,38.342862 C31.5713009,40.1198143 30.2360037,41.464675 28.036445,41.5109582 M14.6067274,38.342862 C14.6029957,38.3460857 14.5984841,38.3499426 14.5951423,38.3528209 L14.6070059,38.3528209 C14.1859311,39.0171345 10.4565788,41.6054819 5.96349932,41.5109582 C3.76394061,41.464675 2.42864344,40.1198143 2.37322421,38.342862 C2.42864344,36.5659097 3.76394061,35.221049 5.96349932,35.1747658 C10.4565788,35.0802997 14.1859868,37.6686471 14.6070059,38.3329031 L14.5951423,38.3329031 C14.5984841,38.3358389 14.6029957,38.3396383 14.6067274,38.342862 M34,38.3329031 L33.9996101,38.3329031 C33.9693663,35.2095933 31.5103119,32.7177843 28.4809685,32.6864684 C23.8465282,32.6385733 19.5605886,34.8822145 17,36.5694212 C14.4394114,34.8822145 10.1534161,32.6385733 5.5189758,32.6864684 C2.48963244,32.7177843 0.0306337467,35.2095933 0,38.3329031 L0,38.3329031 C0,38.3362419 0,38.3395232 0,38.342862 C0,38.3462008 0,38.3494821 0,38.3528209 L0,38.3528209 C0.0306337467,41.4761307 2.48963244,43.9679857 5.5189758,43.9992441 C10.1534161,44.0471967 14.4394114,41.803567 17,40.1163028 C19.5605886,41.803567 23.8465282,44.0471967 28.4809685,43.9992441 C31.5103119,43.9679857 33.9693663,41.4761307 33.9996101,38.3528209 L34,38.3528209 C34,38.3494821 34,38.3462008 34,38.342862 C34,38.3395232 34,38.3362419 34,38.3329031" id="Fill-4"></path>
        </g>
    </g>
</svg>