<?xml version="1.0" encoding="UTF-8"?>
<svg width="571px" height="749px" viewBox="0 0 571 749" version="1.1" xmlns="http://www.w3.org/2000/svg" xmlns:xlink="http://www.w3.org/1999/xlink">
    <title>logo kty black</title>
    <g id="Page-1" stroke="none" stroke-width="1" fill="none" fill-rule="evenodd">
        <g id="logo-kty-black" transform="translate(0.3412, 0.7356)" fill="#2B2B2B">
            <path d="M353.6302,404.61 C313.8752,438.602 307.0682,457.246 285.1152,489.549 C285.0852,489.488 285.0532,489.429 285.0232,489.368 L285.0232,489.691 C284.8472,489.597 284.7112,489.53 284.7022,489.549 C262.7502,457.246 255.9432,438.602 216.1882,404.61 C157.7882,355.155 126.2642,337.896 125.1982,293.724 L125.2072,293.724 C126.2312,249.482 157.7602,232.235 216.2012,182.745 C255.9562,148.754 262.9482,129.832 284.9012,97.529 C306.8532,129.832 313.8612,148.754 353.6162,182.745 C412.0572,232.235 443.5862,249.482 444.6102,293.724 L444.6202,293.724 C443.5532,337.896 412.0292,355.155 353.6302,404.61 M485.5492,293.631 L485.5352,293.631 C485.8842,267.595 474.4092,239.132 458.2652,219.818 C441.9322,200.278 418.6782,185.074 396.3202,166.32 C354.2082,130.996 312.2932,88.618 304.8122,19.906 C299.5332,19.905 304.7712,19.904 304.7712,19.904 C304.7712,19.901 304.7712,19.897 304.7712,19.894 C304.7712,8.907 295.9122,0 284.9852,0 C284.9612,0 284.9372,0 284.9132,0 L284.9042,0.131 L284.9042,0 C284.8802,0 284.8572,0 284.8332,0 C273.9052,0 265.0472,8.907 265.0472,19.894 C265.0472,19.897 265.0472,19.901 265.0472,19.904 C265.0472,19.904 270.2842,19.905 265.0062,19.906 C257.5252,88.618 215.6092,130.996 173.4972,166.32 C151.1402,185.074 127.8852,200.278 111.5522,219.818 C95.4092,239.132 83.9332,267.595 84.2822,293.631 L84.2682,293.631 C83.8912,319.693 95.3762,348.201 111.5392,367.537 C127.8722,387.077 151.1262,402.281 173.4832,421.035 C215.5952,456.36 257.5112,498.737 264.9922,567.449 L265.4612,567.449 L265.0022,567.464 C265.0022,567.468 265.0022,567.471 265.0022,567.475 C265.0022,578.462 273.8482,587.369 284.7612,587.369 C284.7852,587.369 284.8082,587.369 284.8322,587.369 L284.9852,587.197 L284.9852,587.369 C285.0092,587.369 285.0332,587.369 285.0572,587.369 C295.9692,587.369 304.8162,578.462 304.8162,567.475 C304.8162,567.471 304.8152,567.468 304.8152,567.464 L302.9232,567.464 L302.9362,567.45 C303.5342,567.45 304.1532,567.45 304.8252,567.449 C312.3072,498.737 354.2222,456.36 396.3342,421.035 C418.6912,402.281 441.9462,387.077 458.2792,367.537 C474.4412,348.201 485.9262,319.693 485.5492,293.631" id="Fill-1387"></path>
            <path d="M285.5297,240.9139 C315.0167,240.9139 338.9207,264.8179 338.9207,294.3049 C338.9207,323.7919 315.0167,347.6959 285.5297,347.6959 C256.0427,347.6959 232.1387,323.7919 232.1387,294.3049 C232.1387,264.8179 256.0427,240.9139 285.5297,240.9139 M192.4057,293.6839 C192.4057,344.7719 233.8207,386.1869 284.9087,386.1869 C335.9967,386.1869 377.4117,344.7719 377.4117,293.6839 C377.4117,242.5959 335.9967,201.1809 284.9087,201.1809 C233.8207,201.1809 192.4057,242.5959 192.4057,293.6839" id="Fill-1389"></path>
            <path d="M325.013,656.472 L325.213,656.472 C325.156,656.425 325.081,656.362 325.018,656.31 C325.081,656.258 325.156,656.196 325.213,656.149 L325.013,656.149 C332.07,645.377 394.572,603.406 469.873,604.938 C506.737,605.689 529.115,627.496 530.044,656.31 C529.115,685.124 506.737,706.932 469.873,707.682 C394.572,709.214 332.07,667.244 325.013,656.472 Z M244.605,656.472 L244.805,656.472 C237.748,667.244 175.246,709.214 99.945,707.682 C63.081,706.932 40.703,685.124 39.773,656.31 C40.703,627.496 63.081,605.689 99.945,604.938 C175.246,603.406 237.748,645.377 244.805,656.149 L244.605,656.149 C244.661,656.196 244.737,656.258 244.8,656.31 C244.737,656.362 244.661,656.425 244.605,656.472 Z M569.812,656.149 C569.305,605.503 528.093,565.097 477.323,564.589 C399.653,563.813 327.823,600.194 284.909,627.553 C241.995,600.194 170.165,563.813 92.495,564.589 C41.725,565.097 0.513,605.503 0.006,656.149 L0,656.149 C0,656.203 0,656.256 0,656.31 C0,656.364 0,656.418 0,656.472 L0.006,656.472 C0.513,707.118 41.725,747.524 92.495,748.031 C170.165,748.808 241.995,712.426 284.909,685.067 C327.823,712.426 399.653,748.808 477.323,748.031 C528.093,747.524 569.305,707.118 569.812,656.472 L569.818,656.472 C569.818,656.418 569.818,656.364 569.818,656.31 C569.818,656.256 569.818,656.203 569.818,656.149 L569.812,656.149 Z" id="Fill-1391"></path>
        </g>
    </g>
</svg>