<?xml version="1.0" encoding="UTF-8"?>
<svg width="1353px" height="1784px" viewBox="0 0 1353 1784" version="1.1" xmlns="http://www.w3.org/2000/svg" xmlns:xlink="http://www.w3.org/1999/xlink">
    <title>Group</title>
    <g id="Page-1" stroke="none" stroke-width="1" fill="none" fill-rule="evenodd">
        <g id="Artboard-Copy-6" transform="translate(-301, -372)" fill="#1A1919">
            <g id="Logo" transform="translate(301, 372)">
                <path d="M847.424097,971.556587 C753.203938,1053.1884 737.071758,1097.96204 685.042603,1175.5386 C684.971809,1175.39064 684.894378,1175.25166 684.823584,1175.10371 L684.823584,1175.87934 C684.407669,1175.65292 684.084672,1175.49376 684.062549,1175.5386 C632.035385,1097.96204 615.903205,1053.1884 521.683046,971.556587 C383.276378,852.790878 308.564387,811.341691 306.035714,705.261809 L306.057837,705.261809 C308.484744,599.0138 383.210009,557.595997 521.714018,438.745103 C615.93639,357.115535 632.506607,311.676107 684.533771,234.099548 C736.560714,311.676107 753.170753,357.115535 847.390912,438.745103 C985.897134,557.595997 1060.6224,599.0138 1063.04931,705.261809 L1063.07143,705.261809 C1060.54276,811.341691 985.830765,852.790878 847.424097,971.556587 M1162.37739,704.861718 L1162.34414,704.861718 C1163.17321,642.362305 1135.92233,574.036902 1097.58311,527.673237 C1058.7961,480.767306 1003.57167,444.271968 950.47756,399.252761 C850.469726,314.455497 750.927417,212.729253 733.159921,47.7843108 C720.626244,47.78207 733.062383,47.7798292 733.062383,47.7798292 C733.062383,47.7731069 733.0646,47.7641439 733.0646,47.7551808 C733.0646,21.3813783 712.027353,0 686.075504,0 C686.017868,0 685.964665,0 685.907029,0 L685.884861,0.315947846 L685.884861,0 C685.827225,0 685.771805,0 685.714169,0 C659.764315,0 638.727069,21.3813783 638.727069,47.7551808 C638.727069,47.7641439 638.727069,47.7731069 638.727069,47.7798292 C638.727069,47.7798292 651.165424,47.78207 638.62953,47.7843108 C620.864252,212.729253 521.321942,314.455497 421.314109,399.252761 C368.22,444.271968 312.995565,480.767306 274.208557,527.673237 C235.869339,574.036902 208.618457,642.362305 209.447533,704.861718 L209.414281,704.861718 C208.518702,767.423873 235.791752,835.854592 274.175306,882.272036 C312.962313,929.177967 368.188965,965.675545 421.283074,1010.69251 C521.290907,1095.48978 620.831,1197.21826 638.598495,1362.16096 C638.981998,1362.16096 639.336683,1362.16096 639.711319,1362.16096 L638.620663,1362.19681 C638.620663,1362.20578 638.620663,1362.21474 638.620663,1362.22146 C638.620663,1388.59751 659.629092,1409.97888 685.543477,1409.97888 C685.601113,1409.97888 685.656533,1409.97888 685.714169,1409.97888 L686.077721,1409.56658 L686.077721,1409.97888 C686.135357,1409.97888 686.190777,1409.97888 686.246196,1409.97888 C712.162577,1409.97888 733.171005,1388.59751 733.171005,1362.22146 C733.171005,1362.21474 733.168788,1362.20578 733.168788,1362.19681 L728.677591,1362.19681 L728.706409,1362.1632 C730.127365,1362.1632 731.594874,1362.1632 733.193173,1362.16096 C750.960668,1197.21826 850.500761,1095.48978 950.508595,1010.69251 C1003.6027,965.675545 1058.82714,929.177967 1097.61636,882.272036 C1135.9977,835.854592 1163.27297,767.423873 1162.37739,704.861718" id="Fill-1"></path>
                <path d="M681.869158,583.903469 C751.552242,583.903469 808.041667,640.524998 808.041667,710.371041 C808.041667,780.217084 751.552242,836.838612 681.869158,836.838612 C612.185853,836.838612 555.696429,780.217084 555.696429,710.371041 C555.696429,640.524998 612.185853,583.903469 681.869158,583.903469 M464.422619,709.025641 C464.422619,830.142297 561.77613,928.325792 681.869157,928.325792 C801.961966,928.325792 899.315476,830.142297 899.315476,709.025641 C899.315476,587.908985 801.961966,489.72549 681.869157,489.72549 C561.77613,489.72549 464.422619,587.908985 464.422619,709.025641" id="Fill-3"></path>
                <path d="M1116.4423,1687.03378 C937.987911,1690.68375 789.866942,1590.73639 773.142857,1565.08435 L773.614052,1565.08435 C773.481321,1564.9732 773.302134,1564.82427 773.153918,1564.69979 C773.302134,1564.57531 773.481321,1564.4286 773.614052,1564.31523 L773.142857,1564.31523 C789.866942,1538.66542 937.987911,1438.71806 1116.4423,1442.3658 C1203.80352,1444.153 1256.83833,1496.08392 1259.04167,1564.69979 C1256.83833,1633.31566 1203.80352,1685.24658 1116.4423,1687.03378 M579.846082,1564.69979 C579.697865,1564.82427 579.518678,1564.9732 579.385946,1565.08435 L579.857143,1565.08435 C563.132982,1590.73639 415.011338,1690.68375 236.556137,1687.03378 C149.19452,1685.24658 96.1594629,1633.31566 93.9583333,1564.69979 C96.1594629,1496.08392 149.19452,1444.153 236.556137,1442.3658 C415.011338,1438.71806 563.135194,1538.66542 579.857143,1564.31523 L579.385946,1564.31523 C579.518678,1564.4286 579.697865,1564.57531 579.846082,1564.69979 M1353,1565.66174 L1352.98448,1565.66174 C1351.78096,1445.32888 1253.92506,1349.32607 1133.37501,1348.11955 C948.951549,1346.27428 778.396362,1432.71584 676.499889,1497.71945 C574.603638,1432.71584 404.046235,1346.27428 219.622772,1348.11955 C99.0727263,1349.32607 1.21904292,1445.32888 0,1565.66174 L0,1565.66174 C0,1565.79038 0,1565.9168 0,1566.04544 C0,1566.17407 0,1566.30049 0,1566.42913 L0,1566.42913 C1.21904292,1686.76199 99.0727263,1782.76657 219.622772,1783.97088 C404.046235,1785.81837 574.603638,1699.37725 676.499889,1634.37142 C778.396362,1699.37725 948.951549,1785.81837 1133.37501,1783.97088 C1253.92506,1782.76657 1351.78096,1686.76199 1352.98448,1566.42913 L1353,1566.42913 C1353,1566.30049 1353,1566.17407 1353,1566.04544 C1353,1565.9168 1353,1565.79038 1353,1565.66174" id="Fill-4"></path>
            </g>
        </g>
    </g>
</svg>